<svg width="23" height="24" viewBox="0 0 23 24" fill="none" xmlns="http://www.w3.org/2000/svg">
<path d="M13.221 22.3925L12.0814 23.6125C11.5988 24.1292 10.8185 24.1292 10.3411 23.6125L0.361902 12.9343C-0.120634 12.4177 -0.120634 11.5823 0.361902 11.0712L10.3411 0.387451C10.8237 -0.12915 11.604 -0.12915 12.0814 0.387451L13.221 1.60751C13.7086 2.12961 13.6984 2.98145 13.2004 3.49256L7.01473 9.80169H21.768C22.4507 9.80169 23 10.3897 23 11.1207V12.8793C23 13.6103 22.4507 14.1983 21.768 14.1983H7.01473L13.2004 20.5074C13.7035 21.0185 13.7138 21.8704 13.221 22.3925Z" fill="#3C3D41"/>
</svg>
