<svg width="23" height="24" viewBox="0 0 23 24" fill="none" xmlns="http://www.w3.org/2000/svg">
<path d="M9.77904 22.3925L10.9186 23.6125C11.4012 24.1292 12.1815 24.1292 12.6589 23.6125L22.6381 12.9343C23.1206 12.4177 23.1206 11.5823 22.6381 11.0712L12.6589 0.387451C12.1763 -0.12915 11.396 -0.12915 10.9186 0.387451L9.77904 1.60751C9.29137 2.12961 9.30164 2.98145 9.79958 3.49256L15.9853 9.80169H1.23201C0.549269 9.80169 0 10.3897 0 11.1207V12.8793C0 13.6103 0.549269 14.1983 1.23201 14.1983H15.9853L9.79958 20.5074C9.29651 21.0185 9.28624 21.8704 9.77904 22.3925Z" fill="#3C3D41"/>
</svg>
