<svg width="177" height="32" viewBox="0 0 177 32" fill="none" xmlns="http://www.w3.org/2000/svg">
<path d="M20.294 31C20.014 31 19.832 30.86 19.748 30.58L18.362 26.086C18.306 25.974 18.236 25.918 18.152 25.918H7.064C6.98 25.918 6.91 25.974 6.854 26.086L5.468 30.58C5.384 30.86 5.202 31 4.922 31H0.722C0.554 31 0.428 30.958 0.344 30.874C0.26 30.762 0.246 30.608 0.302 30.412L9.416 2.02C9.5 1.74 9.682 1.6 9.962 1.6H15.212C15.492 1.6 15.674 1.74 15.758 2.02L24.914 30.412C24.942 30.468 24.956 30.538 24.956 30.622C24.956 30.874 24.802 31 24.494 31H20.294ZM8.156 21.844C8.128 22.012 8.184 22.096 8.324 22.096H16.85C17.018 22.096 17.074 22.012 17.018 21.844L12.692 7.774C12.664 7.662 12.622 7.606 12.566 7.606C12.51 7.606 12.468 7.662 12.44 7.774L8.156 21.844ZM38.8344 9.286C39.7304 9.286 40.5144 9.468 41.1864 9.832C41.4104 9.944 41.4944 10.154 41.4384 10.462L40.7244 14.242C40.6964 14.578 40.5004 14.676 40.1364 14.536C39.7164 14.396 39.2264 14.326 38.6664 14.326C38.3024 14.326 38.0224 14.34 37.8264 14.368C36.6504 14.424 35.6704 14.844 34.8864 15.628C34.1024 16.384 33.7104 17.378 33.7104 18.61V30.496C33.7104 30.636 33.6544 30.762 33.5424 30.874C33.4584 30.958 33.3464 31 33.2064 31H29.3424C29.2024 31 29.0764 30.958 28.9644 30.874C28.8804 30.762 28.8384 30.636 28.8384 30.496V10.042C28.8384 9.902 28.8804 9.79 28.9644 9.706C29.0764 9.594 29.2024 9.538 29.3424 9.538H33.2064C33.3464 9.538 33.4584 9.594 33.5424 9.706C33.6544 9.79 33.7104 9.902 33.7104 10.042V11.932C33.7104 12.044 33.7244 12.114 33.7524 12.142C33.8084 12.142 33.8644 12.1 33.9204 12.016C35.0964 10.196 36.7344 9.286 38.8344 9.286ZM53.1652 31.336C51.0092 31.336 49.1472 30.79 47.5792 29.698C46.0112 28.578 44.9192 27.08 44.3032 25.204C43.8552 23.944 43.6312 22.264 43.6312 20.164C43.6312 18.148 43.8552 16.496 44.3032 15.208C44.8912 13.36 45.9692 11.904 47.5372 10.84C49.1332 9.748 51.0092 9.202 53.1652 9.202C55.3492 9.202 57.2532 9.748 58.8772 10.84C60.5012 11.932 61.5792 13.304 62.1112 14.956C62.2512 15.404 62.3492 15.852 62.4052 16.3V16.384C62.4052 16.664 62.2512 16.832 61.9432 16.888L58.1632 17.434H58.0792C57.8272 17.434 57.6592 17.294 57.5752 17.014C57.5752 16.874 57.5612 16.762 57.5332 16.678C57.4772 16.454 57.4212 16.258 57.3652 16.09C57.1132 15.306 56.6092 14.662 55.8532 14.158C55.0972 13.654 54.2012 13.402 53.1652 13.402C52.1012 13.402 51.1912 13.682 50.4352 14.242C49.7072 14.774 49.2172 15.516 48.9652 16.468C48.6852 17.364 48.5452 18.61 48.5452 20.206C48.5452 21.746 48.6712 22.992 48.9232 23.944C49.2032 24.924 49.7072 25.708 50.4352 26.296C51.1632 26.856 52.0732 27.136 53.1652 27.136C54.2292 27.136 55.1392 26.87 55.8952 26.338C56.6792 25.778 57.1832 25.036 57.4072 24.112C57.4352 24.056 57.4492 23.986 57.4492 23.902C57.4772 23.874 57.4912 23.832 57.4912 23.776C57.5752 23.44 57.7712 23.3 58.0792 23.356L61.8592 23.944C61.9992 23.972 62.1112 24.042 62.1952 24.154C62.3072 24.238 62.3492 24.364 62.3212 24.532C62.2372 24.98 62.1672 25.302 62.1112 25.498C61.5792 27.29 60.5012 28.718 58.8772 29.782C57.2532 30.818 55.3492 31.336 53.1652 31.336ZM76.8217 9.202C79.0897 9.202 80.8957 9.874 82.2397 11.218C83.6117 12.562 84.2977 14.396 84.2977 16.72V30.496C84.2977 30.636 84.2417 30.762 84.1297 30.874C84.0457 30.958 83.9337 31 83.7937 31H79.9297C79.7897 31 79.6637 30.958 79.5517 30.874C79.4677 30.762 79.4257 30.636 79.4257 30.496V17.728C79.4257 16.44 79.0617 15.404 78.3337 14.62C77.6057 13.808 76.6397 13.402 75.4357 13.402C74.2317 13.402 73.2517 13.794 72.4957 14.578C71.7677 15.362 71.4037 16.398 71.4037 17.686V30.496C71.4037 30.636 71.3477 30.762 71.2357 30.874C71.1517 30.958 71.0397 31 70.8997 31H67.0357C66.8957 31 66.7697 30.958 66.6577 30.874C66.5737 30.762 66.5317 30.636 66.5317 30.496V2.104C66.5317 1.964 66.5737 1.852 66.6577 1.768C66.7697 1.656 66.8957 1.6 67.0357 1.6H70.8997C71.0397 1.6 71.1517 1.656 71.2357 1.768C71.3477 1.852 71.4037 1.964 71.4037 2.104V11.386C71.4037 11.47 71.4317 11.526 71.4877 11.554C71.5437 11.582 71.5857 11.554 71.6137 11.47C72.7617 9.958 74.4977 9.202 76.8217 9.202ZM92.1494 6.598C91.2814 6.598 90.5674 6.318 90.0074 5.758C89.4474 5.198 89.1674 4.484 89.1674 3.616C89.1674 2.748 89.4474 2.034 90.0074 1.474C90.5674 0.913998 91.2814 0.633998 92.1494 0.633998C93.0174 0.633998 93.7314 0.913998 94.2914 1.474C94.8514 2.034 95.1314 2.748 95.1314 3.616C95.1314 4.484 94.8514 5.198 94.2914 5.758C93.7314 6.318 93.0174 6.598 92.1494 6.598ZM90.1334 31C89.9934 31 89.8674 30.958 89.7554 30.874C89.6714 30.762 89.6294 30.636 89.6294 30.496V10C89.6294 9.86 89.6714 9.748 89.7554 9.664C89.8674 9.552 89.9934 9.496 90.1334 9.496H93.9974C94.1374 9.496 94.2494 9.552 94.3334 9.664C94.4454 9.748 94.5014 9.86 94.5014 10V30.496C94.5014 30.636 94.4454 30.762 94.3334 30.874C94.2494 30.958 94.1374 31 93.9974 31H90.1334ZM106.803 31C106.495 31 106.299 30.86 106.215 30.58L98.5705 2.146L98.5285 1.978C98.5285 1.726 98.6825 1.6 98.9905 1.6H103.107C103.415 1.6 103.611 1.74 103.695 2.02L108.483 21.172C108.511 21.256 108.553 21.298 108.609 21.298C108.665 21.298 108.707 21.256 108.735 21.172L113.313 2.02C113.397 1.74 113.579 1.6 113.859 1.6H117.891C118.199 1.6 118.395 1.74 118.479 2.02L123.351 21.214C123.379 21.298 123.421 21.34 123.477 21.34C123.533 21.34 123.575 21.298 123.603 21.214L128.307 2.02C128.391 1.74 128.587 1.6 128.895 1.6H132.801C133.193 1.6 133.347 1.782 133.263 2.146L125.997 30.58C125.913 30.86 125.717 31 125.409 31H121.503C121.195 31 120.999 30.86 120.915 30.58L116.001 10.546C115.973 10.462 115.931 10.42 115.875 10.42C115.819 10.392 115.777 10.434 115.749 10.546L111.045 30.58C110.961 30.86 110.779 31 110.499 31H106.803ZM152.679 17.854C152.791 18.554 152.847 19.338 152.847 20.206L152.805 21.508C152.805 21.844 152.637 22.012 152.301 22.012H139.155C139.015 22.012 138.945 22.082 138.945 22.222C139.029 23.146 139.155 23.776 139.323 24.112C139.995 26.128 141.633 27.15 144.237 27.178C146.141 27.178 147.653 26.394 148.773 24.826C148.885 24.658 149.025 24.574 149.193 24.574C149.305 24.574 149.403 24.616 149.487 24.7L152.091 26.842C152.343 27.038 152.385 27.262 152.217 27.514C151.349 28.746 150.187 29.698 148.731 30.37C147.303 31.042 145.707 31.378 143.943 31.378C141.759 31.378 139.897 30.888 138.357 29.908C136.845 28.928 135.739 27.556 135.039 25.792C134.395 24.28 134.073 22.18 134.073 19.492C134.073 17.868 134.241 16.552 134.577 15.544C135.137 13.584 136.187 12.044 137.727 10.924C139.295 9.776 141.171 9.202 143.355 9.202C148.871 9.202 151.979 12.086 152.679 17.854ZM143.355 13.402C142.319 13.402 141.451 13.668 140.751 14.2C140.079 14.704 139.603 15.418 139.323 16.342C139.155 16.818 139.043 17.434 138.987 18.19C138.931 18.33 138.987 18.4 139.155 18.4H147.681C147.821 18.4 147.891 18.33 147.891 18.19C147.835 17.49 147.751 16.958 147.639 16.594C147.387 15.586 146.883 14.802 146.127 14.242C145.399 13.682 144.475 13.402 143.355 13.402ZM175.401 15.082C175.877 16.65 176.115 18.358 176.115 20.206C176.115 22.194 175.849 23.944 175.317 25.456C174.701 27.304 173.707 28.746 172.335 29.782C170.963 30.818 169.283 31.336 167.295 31.336C165.335 31.336 163.725 30.594 162.465 29.11C162.409 29.026 162.353 28.998 162.297 29.026C162.241 29.054 162.213 29.11 162.213 29.194V30.496C162.213 30.636 162.157 30.762 162.045 30.874C161.961 30.958 161.849 31 161.709 31H157.845C157.705 31 157.579 30.958 157.467 30.874C157.383 30.762 157.341 30.636 157.341 30.496V2.104C157.341 1.964 157.383 1.852 157.467 1.768C157.579 1.656 157.705 1.6 157.845 1.6H161.709C161.849 1.6 161.961 1.656 162.045 1.768C162.157 1.852 162.213 1.964 162.213 2.104V11.218C162.213 11.302 162.241 11.358 162.297 11.386C162.353 11.414 162.409 11.4 162.465 11.344C163.669 9.916 165.265 9.202 167.253 9.202C169.325 9.202 171.033 9.72 172.377 10.756C173.749 11.792 174.757 13.234 175.401 15.082ZM170.109 25.12C170.781 23.944 171.117 22.334 171.117 20.29C171.117 18.106 170.697 16.398 169.857 15.166C169.101 13.99 167.981 13.402 166.497 13.402C165.125 13.402 164.075 14.018 163.347 15.25C162.647 16.398 162.297 18.064 162.297 20.248C162.297 22.404 162.619 24.028 163.263 25.12C163.991 26.464 165.083 27.136 166.539 27.136C167.323 27.136 168.023 26.968 168.639 26.632C169.255 26.268 169.745 25.764 170.109 25.12Z" fill="#2F2E2E"/>
</svg>
